v -0.3 0.6 -0.3
v 0.3 0.6 -0.3
v 0.3 2.3 -0.3
v -0.3 2.3 -0.3
v -0.3 0.6 0.3
v 0.3 0.6 0.3
v 0.3 2.3 0.3
v -0.3 2.3 0.3
v -0.4 2.3 -0.4
v 0.4 2.3 -0.4
v 0.4 3.0999999999999996 -0.4
v -0.4 3.0999999999999996 -0.4
v -0.4 2.3 0.4
v 0.4 2.3 0.4
v 0.4 3.0999999999999996 0.4
v -0.4 3.0999999999999996 0.4
v -0.3 0 -0.3
v 0.0 0 -0.3
v 0.0 0.6 -0.3
v -0.3 0.6 -0.3
v -0.3 0 0.0
v 0.0 0 0.0
v 0.0 0.6 0.0
v -0.3 0.6 0.0
v 0.0 0 -0.3
v 0.3 0 -0.3
v 0.3 0.6 -0.3
v 0.0 0.6 -0.3
v 0.0 0 0.0
v 0.3 0 0.0
v 0.3 0.6 0.0
v 0.0 0.6 0.0
v -0.3 0 0.0
v 0.0 0 0.0
v 0.0 0.6 0.0
v -0.3 0.6 0.0
v -0.3 0 0.3
v 0.0 0 0.3
v 0.0 0.6 0.3
v -0.3 0.6 0.3
v 0.0 0 0.0
v 0.3 0 0.0
v 0.3 0.6 0.0
v 0.0 0.6 0.0
v 0.0 0 0.3
v 0.3 0 0.3
v 0.3 0.6 0.3
v 0.0 0.6 0.3
vt 0 0
vt 1 0
vt 1 1
vt 0 1
vt 0 0
vt 1 0
vt 1 1
vt 0 1
vt 0 0
vt 1 0
vt 1 1
vt 0 1
vt 0 0
vt 1 0
vt 1 1
vt 0 1
vt 0 0
vt 1 0
vt 1 1
vt 0 1
vt 0 0
vt 1 0
vt 1 1
vt 0 1
vt 0 0
vt 1 0
vt 1 1
vt 0 1
vt 0 0
vt 1 0
vt 1 1
vt 0 1
vt 0 0
vt 1 0
vt 1 1
vt 0 1
vt 0 0
vt 1 0
vt 1 1
vt 0 1
vt 0 0
vt 1 0
vt 1 1
vt 0 1
vt 0 0
vt 1 0
vt 1 1
vt 0 1
vt 0 0
vt 1 0
vt 1 1
vt 0 1
vt 0 0
vt 1 0
vt 1 1
vt 0 1
vt 0 0
vt 1 0
vt 1 1
vt 0 1
vt 0 0
vt 1 0
vt 1 1
vt 0 1
vt 0 0
vt 1 0
vt 1 1
vt 0 1
vt 0 0
vt 1 0
vt 1 1
vt 0 1
vt 0 0
vt 1 0
vt 1 1
vt 0 1
vt 0 0
vt 1 0
vt 1 1
vt 0 1
vt 0 0
vt 1 0
vt 1 1
vt 0 1
vt 0 0
vt 1 0
vt 1 1
vt 0 1
vt 0 0
vt 1 0
vt 1 1
vt 0 1
vt 0 0
vt 1 0
vt 1 1
vt 0 1
vt 0 0
vt 1 0
vt 1 1
vt 0 1
vt 0 0
vt 1 0
vt 1 1
vt 0 1
vt 0 0
vt 1 0
vt 1 1
vt 0 1
vt 0 0
vt 1 0
vt 1 1
vt 0 1
vt 0 0
vt 1 0
vt 1 1
vt 0 1
vt 0 0
vt 1 0
vt 1 1
vt 0 1
vt 0 0
vt 1 0
vt 1 1
vt 0 1
vt 0 0
vt 1 0
vt 1 1
vt 0 1
vt 0 0
vt 1 0
vt 1 1
vt 0 1
vt 0 0
vt 1 0
vt 1 1
vt 0 1
vt 0 0
vt 1 0
vt 1 1
vt 0 1
vt 0 0
vt 1 0
vt 1 1
vt 0 1
f 1/1 2/2 3/3 4/4
f 5/5 8/8 7/7 6/6
f 1/9 4/10 8/11 5/12
f 2/13 6/14 7/15 3/16
f 4/17 3/18 7/19 8/20
f 1/21 5/22 6/23 2/24
f 9/1 10/2 11/3 12/4
f 13/5 16/8 15/7 14/6
f 9/9 12/10 16/11 13/12
f 10/13 14/14 15/15 11/16
f 12/17 11/18 15/19 16/20
f 9/21 13/22 14/23 10/24
f 17/1 18/2 19/3 20/4
f 21/5 24/8 23/7 22/6
f 17/9 20/10 24/11 21/12
f 18/13 22/14 23/15 19/16
f 20/17 19/18 23/19 24/20
f 17/21 21/22 22/23 18/24
f 25/1 26/2 27/3 28/4
f 29/5 32/8 31/7 30/6
f 25/9 28/10 32/11 29/12
f 26/13 30/14 31/15 27/16
f 28/17 27/18 31/19 32/20
f 25/21 29/22 30/23 26/24
f 33/1 34/2 35/3 36/4
f 37/5 40/8 39/7 38/6
f 33/9 36/10 40/11 37/12
f 34/13 38/14 39/15 35/16
f 36/17 35/18 39/19 40/20
f 33/21 37/22 38/23 34/24
f 41/1 42/2 43/3 44/4
f 45/5 48/8 47/7 46/6
f 41/9 44/10 48/11 45/12
f 42/13 46/14 47/15 43/16
f 44/17 43/18 47/19 48/20
f 41/21 45/22 46/23 42/24